<?xml version="1.0" encoding="utf-8"?>
<!-- Generator: Adobe Illustrator 16.0.0, SVG Export Plug-In . SVG Version: 6.00 Build 0)  -->
<!DOCTYPE svg PUBLIC "-//W3C//DTD SVG 1.1//EN" "http://www.w3.org/Graphics/SVG/1.1/DTD/svg11.dtd">
<svg version="1.1" id="Calque_1" xmlns="http://www.w3.org/2000/svg" xmlns:xlink="http://www.w3.org/1999/xlink" x="0px" y="0px"
	 width="34.5px" height="32px" viewBox="0 0 34.5 32" enable-background="new 0 0 34.5 32" xml:space="preserve">
<g>
	<path fill-rule="evenodd" clip-rule="evenodd" fill="#222222" d="M15.339,0.88c0,0-2.425,0.026-2.425,2.447c0,2.423,0,8.48,0,8.48
		H4.349c0,0-2.349,0.125-2.349,2.32v3.48c0,0-0.077,2.677,2.275,2.677h8.639v8.451c0,0,0,2.423,2.349,2.423H18.9
		c0,0,2.501-0.151,2.501-2.272v-8.59h8.414c0,0,2.501,0.036,2.501-2.384v-3.785c0,0-0.076-2.311-2.425-2.311h-8.412V3.278
		c0,0-0.38-2.437-2.429-2.437C17.009,0.842,15.339,0.88,15.339,0.88z"/>
</g>
</svg>
