<svg xmlns="http://www.w3.org/2000/svg" width="1000" height="1000"><path fill="#222" d="M275.36 260.255h439.29c17.322 0 31.381 14.055 31.381 31.378s-14.059 31.376-31.381 31.376h-439.29c-17.333 0-31.377-14.053-31.377-31.376-.001-17.323 14.044-31.378 31.377-31.378z"/><path fill="#222" d="M275.36 448.521h439.29c17.322 0 31.381 14.057 31.381 31.38 0 17.321-14.059 31.376-31.381 31.376h-439.29c-17.333 0-31.377-14.055-31.377-31.376 0-17.323 14.044-31.38 31.377-31.38z"/><path fill="#222" d="M272.098 746.3h251.023l-251.023 251.023v-251.023z"/><path stroke="#222" stroke-width="100" stroke-miterlimit="10" d="M243.805 50.002h517.445c102.073 0 184.802 82.728 184.802 184.802v295.684c0 102.068-82.729 184.8-184.802 184.8h-517.445c-102.065 0-184.802-82.729-184.802-184.8v-295.683c0-102.075 82.737-184.803 184.802-184.803z" fill="none"/></svg>