<?xml version="1.0" encoding="utf-8"?>
<!-- Generator: Adobe Illustrator 16.0.0, SVG Export Plug-In . SVG Version: 6.00 Build 0)  -->
<!DOCTYPE svg PUBLIC "-//W3C//DTD SVG 1.1//EN" "http://www.w3.org/Graphics/SVG/1.1/DTD/svg11.dtd">
<svg version="1.1" id="tracé" xmlns="http://www.w3.org/2000/svg" xmlns:xlink="http://www.w3.org/1999/xlink" x="0px" y="0px"
	 viewBox="0 0 14.293 13.203" enable-background="new 0 0 14.293 13.203" xml:space="preserve">
<rect x="0.5" y="1.25" fill="none" stroke="#FFFFFF" stroke-miterlimit="10" width="13.293" height="11.453"/>
<g>
	<path fill="#FFFFFF" d="M6.252,7.796l0.864,0.112C7.022,8.504,6.78,8.97,6.391,9.307S5.524,9.813,4.958,9.813
		c-0.709,0-1.28-0.232-1.711-0.696S2.6,7.988,2.6,7.122c0-0.56,0.093-1.05,0.278-1.47s0.468-0.735,0.847-0.945
		s0.792-0.315,1.238-0.315c0.563,0,1.024,0.143,1.382,0.427s0.587,0.689,0.688,1.213L6.179,6.165
		c-0.082-0.348-0.226-0.61-0.432-0.786S5.29,5.115,4.997,5.115c-0.443,0-0.802,0.159-1.079,0.476S3.503,6.411,3.503,7.098
		c0,0.697,0.133,1.203,0.4,1.519S4.519,9.09,4.948,9.09c0.345,0,0.633-0.106,0.864-0.317S6.19,8.235,6.252,7.796z"/>
	<path fill="#FFFFFF" d="M11.252,7.796l0.864,0.112c-0.094,0.596-0.336,1.062-0.725,1.399s-0.867,0.505-1.433,0.505
		c-0.709,0-1.28-0.232-1.711-0.696S7.6,7.988,7.6,7.122c0-0.56,0.093-1.05,0.278-1.47s0.468-0.735,0.847-0.945
		s0.792-0.315,1.238-0.315c0.563,0,1.024,0.143,1.382,0.427s0.587,0.689,0.688,1.213l-0.854,0.132
		c-0.082-0.348-0.226-0.61-0.432-0.786s-0.457-0.264-0.75-0.264c-0.443,0-0.802,0.159-1.079,0.476S8.503,6.411,8.503,7.098
		c0,0.697,0.133,1.203,0.4,1.519S9.519,9.09,9.948,9.09c0.345,0,0.633-0.106,0.864-0.317S11.19,8.235,11.252,7.796z"/>
</g>
</svg>
