<?xml version="1.0" encoding="utf-8"?>
<!-- Generator: Adobe Illustrator 16.0.0, SVG Export Plug-In . SVG Version: 6.00 Build 0)  -->
<!DOCTYPE svg PUBLIC "-//W3C//DTD SVG 1.1//EN" "http://www.w3.org/Graphics/SVG/1.1/DTD/svg11.dtd">
<svg version="1.1" id="tracé" xmlns="http://www.w3.org/2000/svg" xmlns:xlink="http://www.w3.org/1999/xlink" x="0px" y="0px"
	 viewBox="0 0 14.293 12.453" enable-background="new 0 0 14.293 12.453" xml:space="preserve">
<rect x="1.236" y="1.135" fill="none" stroke="#FFFFFF" stroke-miterlimit="10" width="11.82" height="10.184"/>
<g>
	<path fill="#FFFFFF" d="M6.351,6.955l0.769,0.1C7.036,7.585,6.821,8,6.475,8.299C6.128,8.598,5.704,8.748,5.201,8.748
		c-0.631,0-1.139-0.206-1.521-0.619C3.295,7.717,3.104,7.125,3.104,6.355c0-0.498,0.083-0.933,0.247-1.306
		c0.165-0.374,0.416-0.654,0.753-0.84s0.705-0.28,1.101-0.28c0.5,0,0.91,0.126,1.229,0.38c0.318,0.252,0.522,0.613,0.612,1.079
		l-0.76,0.117c-0.073-0.31-0.201-0.542-0.385-0.699C5.718,4.65,5.496,4.571,5.235,4.571c-0.394,0-0.713,0.141-0.959,0.423
		S3.907,5.724,3.907,6.334c0,0.62,0.118,1.07,0.356,1.35C4.5,7.965,4.81,8.105,5.192,8.105c0.307,0,0.563-0.094,0.768-0.282
		C6.166,7.635,6.296,7.346,6.351,6.955z"/>
	<path fill="#FFFFFF" d="M10.797,6.955l0.768,0.1C11.481,7.585,11.267,8,10.92,8.299c-0.346,0.299-0.771,0.449-1.274,0.449
		c-0.631,0-1.139-0.206-1.522-0.619C7.741,7.717,7.549,7.125,7.549,6.355c0-0.498,0.083-0.933,0.248-1.306
		c0.165-0.374,0.416-0.654,0.753-0.84s0.704-0.28,1.1-0.28c0.501,0,0.911,0.126,1.229,0.38c0.318,0.252,0.522,0.613,0.612,1.079
		l-0.76,0.117c-0.072-0.31-0.2-0.542-0.384-0.699C10.164,4.65,9.941,4.571,9.681,4.571c-0.394,0-0.713,0.141-0.96,0.423
		C8.476,5.277,8.353,5.724,8.353,6.334c0,0.62,0.119,1.07,0.356,1.35c0.238,0.281,0.547,0.421,0.929,0.421
		c0.307,0,0.563-0.094,0.769-0.282C10.611,7.635,10.742,7.346,10.797,6.955z"/>
</g>
</svg>
