<?xml version="1.0" encoding="utf-8"?>
<!-- Generator: Adobe Illustrator 16.0.0, SVG Export Plug-In . SVG Version: 6.00 Build 0)  -->
<!DOCTYPE svg PUBLIC "-//W3C//DTD SVG 1.1//EN" "http://www.w3.org/Graphics/SVG/1.1/DTD/svg11.dtd">
<svg version="1.1" id="Calque_1" xmlns="http://www.w3.org/2000/svg" xmlns:xlink="http://www.w3.org/1999/xlink" x="0px" y="0px"
	 width="34.5px" height="32px" viewBox="0 0 34.5 32" enable-background="new 0 0 34.5 32" xml:space="preserve">
<g>
	<path fill="#D4D7DC" d="M6.685,26.955c0,0,0.117,1.986,2.153,1.986h3.226c0,0,2.481,0.066,2.481-1.922l0.011-21.616
		c0,0,0.036-2.118-2.209-2.118H8.838c0,0-2.176,0.064-2.176,2.054L6.685,26.955z"/>
</g>
<g>
	<path fill="#D4D7DC" d="M18.968,26.84c0,0,0.115,1.988,2.151,1.988h3.227c0,0,2.481,0.066,2.481-1.922L26.838,5.29
		c0,0,0.036-2.118-2.209-2.118h-3.508c0,0-2.177,0.064-2.177,2.054L18.968,26.84z"/>
</g>
</svg>
