<svg xmlns="http://www.w3.org/2000/svg" width="1000" height="1000"><g fill="#D4D7DC"><path d="M874.774 0h-751.356c-69.125 0-125.227 56.101-125.227 125.226v751.357c0 69.125 56.102 125.226 125.227 125.226h751.356c69.125 0 125.226-56.101 125.226-125.226v-751.357c0-69.125-56.101-125.226-125.226-125.226zm0 813.97c0 34.624-27.989 62.613-62.613 62.613h-626.131c-34.623 0-62.612-27.989-62.612-62.613v-626.13c0-34.562 27.989-62.613 62.612-62.613h626.131c34.624 0 62.613 28.051 62.613 62.613v626.13z"/><polygon points="668.025,277.188 498.408,446.806 330.166,277.188 435.795,187.839 185.343,187.839 186.03,440.233 271.436,334.604 439.739,500.904 269.494,675.72 186.03,562.203 186.03,811.341 436.483,812.655 326.91,734.389 499.096,558.32 651.746,712.911 555.824,812.655 812.161,811.341 812.161,560.262 716.927,658.125 553.194,499.59 726.756,334.604 812.161,438.292 812.85,187.839 558.453,187.839"/></g></svg>