<?xml-stylesheet type="text/css" href="../svg-stylesheet.css" ?><svg xmlns="http://www.w3.org/2000/svg" viewBox="0 0 12.063 11" enable-background="new 0 0 12.063 11"><g fill="#fff"><polygon points="10,0 10,1 0,1 0,1.938 10,1.938 10,2.938 12.063,2.938 12.063,1.938 12.063,1 12.063,0"/><polygon points="8.094,4 6.031,4 6.031,5 0,5 0,5.938 6.031,5.938 6.031,6.938 8.094,6.938 8.094,5.938 12.063,5.938 12.063,5 8.094,5"/><polygon points="10,9.063 0,9.063 0,10 10,10 10,11 12.063,11 12.063,10 12.063,9.063 12.063,8.063 10,8.063"/></g></svg>