<svg xmlns="http://www.w3.org/2000/svg" viewBox="0 0 11.009 11.017" enable-background="new 0 0 11.009 11.017"><polygon fill="#fff" points="5.505,0.741 8.257,5.509 11.009,10.276 5.505,10.276 0,10.276 2.753,5.509"/><path d="M5.605 7.566h-.194c-.021-.337-.089-.745-.204-1.224l-.231-.967c-.139-.58-.208-.996-.208-1.247 0-.228.068-.411.204-.55s.313-.208.532-.208c.213 0 .39.07.53.211.141.14.211.319.211.534 0 .225-.074.645-.222 1.26l-.235.967c-.083.343-.144.751-.183 1.224zm-.092.635c.198 0 .368.07.508.211.14.14.211.311.211.512 0 .198-.071.368-.211.508-.141.14-.311.211-.508.211-.198 0-.368-.07-.508-.211-.14-.14-.21-.31-.21-.508s.069-.368.208-.51.308-.213.51-.213z"/></svg>