<svg xmlns="http://www.w3.org/2000/svg" width="1000" height="1000"><path fill="#D5D7DC" d="M876.329 0h-748.025c-68.85 0-124.671 55.821-124.671 124.671v748.025c0 68.85 55.821 124.671 124.671 124.671h748.025c68.85 0 124.671-55.821 124.671-124.671v-748.025c0-68.85-55.821-124.671-124.671-124.671zm0 810.361c0 34.394-27.942 62.335-62.335 62.335h-623.355c-34.411 0-62.335-27.941-62.335-62.335v-623.355c0-34.41 27.925-62.335 62.335-62.335h623.355c34.393 0 62.335 27.926 62.335 62.335v623.355z"/><path fill="#D5D7DC" d="M295.16 662.436l-103.913 103.852v44.073h44.135l103.851-103.853 103.898 103.853v-251.899h-251.884l103.913 103.974z"/><path fill="#D5D7DC" d="M562.704 558.462v251.899l103.82-103.853 103.883 103.853h44.194v-43.951l-104.001-103.974 104.002-103.974h-251.898z"/><path fill="#D5D7DC" d="M814.602 187.052h-44.072l-103.913 103.898-103.913-103.944v251.914h251.897l-103.911-103.897 103.911-103.898v-44.073z"/><path fill="#D5D7DC" d="M235.26 187.052h-44.013v44.119l103.913 103.882-103.913 103.882h251.884v-251.883l-103.898 103.928-103.973-103.928z"/></svg>