<?xml version="1.0" encoding="utf-8"?>
<!-- Generator: Adobe Illustrator 16.0.0, SVG Export Plug-In . SVG Version: 6.00 Build 0)  -->
<!DOCTYPE svg PUBLIC "-//W3C//DTD SVG 1.1//EN" "http://www.w3.org/Graphics/SVG/1.1/DTD/svg11.dtd">
<svg version="1.1" id="Calque_1" xmlns="http://www.w3.org/2000/svg" xmlns:xlink="http://www.w3.org/1999/xlink" x="0px" y="0px"
	 width="64px" height="64px" viewBox="0 0 16 16" enable-background="new 0 0 16 16" xml:space="preserve">
<g>
	<path fill-rule="evenodd" clip-rule="evenodd" fill="#222222" d="M14,0H2C0.896,0,0,0.896,0,2v12c0,1.104,0.896,2,2,2h12
		c1.104,0,2-0.896,2-2V2C16,0.896,15.104,0,14,0z M14,13c0,0.553-0.447,1-1,1H3c-0.553,0-1-0.447-1-1V3c0-0.552,0.447-1,1-1h10
		c0.553,0,1,0.448,1,1V13z"/>
	<polygon fill-rule="evenodd" clip-rule="evenodd" fill="#222222" points="10.698,4.427 7.989,7.136 5.302,4.427 6.989,3 2.989,3 
		3,7.031 4.364,5.344 7.052,8 4.333,10.792 3,8.979 3,12.958 7,12.979 5.25,11.729 8,8.917 10.438,11.386 8.906,12.979 13,12.958 
		13,8.948 11.479,10.511 8.864,7.979 11.636,5.344 13,7 13.011,3 8.948,3 	"/>
</g>
</svg>
