<?xml version="1.0" encoding="utf-8"?>
<!-- Generator: Adobe Illustrator 16.0.0, SVG Export Plug-In . SVG Version: 6.00 Build 0)  -->
<!DOCTYPE svg PUBLIC "-//W3C//DTD SVG 1.1//EN" "http://www.w3.org/Graphics/SVG/1.1/DTD/svg11.dtd">
<svg version="1.1" id="Calque_1" xmlns="http://www.w3.org/2000/svg" xmlns:xlink="http://www.w3.org/1999/xlink" x="0px" y="0px"
	 width="32px" height="32px" viewBox="0 0 32 32" enable-background="new 0 0 32 32" xml:space="preserve">
<g>
	<path fill-rule="evenodd" clip-rule="evenodd" fill="#282828" d="M28,0H4C1.791,0,0,1.791,0,4v24c0,2.209,1.791,4,4,4h24
		c2.209,0,4-1.791,4-4V4C32,1.791,30.209,0,28,0z M28,26c0,1.104-0.896,2-2,2H6c-1.104,0-2-0.896-2-2V6c0-1.104,0.896-2,2-2h20
		c1.104,0,2,0.896,2,2V26z"/>
	<polygon fill-rule="evenodd" clip-rule="evenodd" fill="#282828" points="21.396,8.854 15.979,14.271 10.604,8.854 13.979,6 
		5.979,6 6,14.063 8.729,10.688 14.104,16 8.667,21.584 6,17.959 6,25.917 14,25.959 10.5,23.458 16,17.834 20.875,22.771 
		17.813,25.959 26,25.916 26,17.896 22.958,21.021 17.729,15.958 23.271,10.688 26,14 26.021,6 17.896,6 	"/>
</g>
</svg>
