<?xml version="1.0" encoding="utf-8"?>
<!-- Generator: Adobe Illustrator 16.0.0, SVG Export Plug-In . SVG Version: 6.00 Build 0)  -->
<!DOCTYPE svg PUBLIC "-//W3C//DTD SVG 1.1//EN" "http://www.w3.org/Graphics/SVG/1.1/DTD/svg11.dtd">
<svg version="1.1" id="Calque_1" xmlns="http://www.w3.org/2000/svg" xmlns:xlink="http://www.w3.org/1999/xlink" x="0px" y="0px"
	 width="612px" height="792px" viewBox="0 0 612 792" enable-background="new 0 0 612 792" xml:space="preserve">
<g>
	<path fill="#D4D7DC" d="M118.586,590.332c0,0,2.076,35.23,38.192,35.23h57.227c0,0,44.011,1.17,44.011-34.095l0.195-383.449
		c0,0,0.639-37.571-39.186-37.571h-62.247c0,0-38.6,1.135-38.6,36.436L118.586,590.332z"/>
</g>
<g>
	<path fill="#D4D7DC" d="M336.476,588.292c0,0,2.04,35.266,38.157,35.266h57.244c0,0,44.011,1.171,44.011-34.095l0.195-383.449
		c0,0,0.639-37.571-39.186-37.571h-62.229c0,0-38.618,1.135-38.618,36.437L336.476,588.292z"/>
</g>
</svg>
