<svg xmlns="http://www.w3.org/2000/svg" width="1000" height="1000"><path fill="#D5D7DC" d="M372.734 243.542h-27.002l-115.162 84.581s-18.019 28.776-52.16 28.776h-122.396s-55.776 3.632-55.776 57.594v170.965s-7.194 57.551 57.579 57.551h115.189s39.574 7.208 59.396 28.804l113.356 84.57 28.805 3.631s30.592 0 30.592-28.775v-458.935c-.029 0-1.859-28.762-32.421-28.762z"/><path fill="#D5D7DC" d="M784.531 894.756c88.371-99.526 141.807-230.804 141.807-374.724 0-143.553-53.209-274.575-141.125-373.956l-43.307 53.082c77.363 84.567 124.584 197.23 124.584 320.875 0 123.573-47.08 236.036-124.213 320.548l42.254 54.175z"/><path fill="#D5D7DC" d="M640.684 792.222c68.701-70.148 110.986-166.238 110.986-272.161 0-104.049-40.838-198.521-107.301-268.275l-36.975 53.124c54.885 55.154 88.822 131.207 88.822 215.151 0 85.659-35.33 163.076-92.115 218.499l36.583 53.662z"/><path fill="#D5D7DC" d="M508.523 678.938c43.617-39.051 67.371-95.806 67.371-158.905 0-63.979-24.576-121.402-69.131-160.494l-29.569 60.247c28.264 24.178 42.481 60.035 42.481 100.133 0 44.142-32.494 83.306-65.782 107.198l54.63 51.821z"/></svg>